<svg width="105" height="105" viewBox="0 0 105 105" fill="none" xmlns="http://www.w3.org/2000/svg">
<path fill-rule="evenodd" clip-rule="evenodd" d="M103.405 52.5C103.405 80.6142 80.6142 103.405 52.5 103.405C24.3858 103.405 1.59478 80.6142 1.59478 52.5C1.59478 24.3858 24.3858 1.59478 52.5 1.59478C80.6142 1.59478 103.405 24.3858 103.405 52.5ZM105 52.5C105 81.4949 81.4949 105 52.5 105C23.5051 105 0 81.4949 0 52.5C0 23.5051 23.5051 0 52.5 0C81.4949 0 105 23.5051 105 52.5ZM97.3863 57.976C89.8556 57.976 83.1887 54.2772 79.1034 48.5972C79.3874 48.1326 79.7039 47.6977 80.0498 47.2909C83.8278 52.8213 90.1832 56.4513 97.3863 56.4513C98.6537 56.4513 99.8948 56.3389 101.1 56.1236C101.067 56.6484 101.026 57.1711 100.976 57.6913C99.8071 57.8787 98.6081 57.976 97.3863 57.976ZM102.535 57.3843L102.536 57.3842C102.581 56.8538 102.619 56.321 102.648 55.786L102.648 55.7861C102.618 56.3211 102.581 56.8539 102.535 57.3843ZM51.0623 2.76864L51.0623 2.76867C50.759 2.77699 50.4564 2.78801 50.1544 2.80168C50.4563 2.788 50.759 2.77697 51.0623 2.76864ZM58.4064 3.09666L58.4063 3.09655C59.3654 3.20946 60.3162 3.34937 61.2579 3.5155L61.2579 3.51562C60.3162 3.34948 59.3654 3.20957 58.4064 3.09666ZM65.7226 4.51591L65.7226 4.51575C66.2148 4.64999 66.704 4.79152 67.1901 4.94023L67.1901 4.9404C66.704 4.79169 66.2148 4.65015 65.7226 4.51591ZM71.5458 6.4973L71.5458 6.49708C72.0331 6.69718 72.5166 6.90471 72.996 7.11954L72.996 7.11978C72.5165 6.90495 72.0331 6.6974 71.5458 6.4973ZM77.7204 9.54542L77.7203 9.54502C79.2269 10.4223 80.6838 11.3757 82.0856 12.4L82.0851 12.4C80.6835 11.3759 79.2269 10.4226 77.7204 9.54542ZM86.2044 15.7561L86.2047 15.756C86.641 16.1514 87.0704 16.5543 87.4925 16.9646L87.4922 16.9648C87.07 16.5545 86.6407 16.1516 86.2044 15.7561ZM102.597 49.4144C102.635 49.9416 102.664 50.4711 102.685 51.0027L102.684 51.0028C102.663 50.4712 102.634 49.9418 102.597 49.4145L102.597 49.4144ZM90.7606 20.4572L90.761 20.457C91.1044 20.8607 91.4416 21.2698 91.7723 21.6843L91.7719 21.6845C91.4412 21.27 91.104 20.8608 90.7606 20.4572ZM101.747 43.0959C101.851 43.6184 101.948 44.1439 102.036 44.6721L102.036 44.6724C101.947 44.1441 101.851 43.6187 101.747 43.0962L101.747 43.0959ZM98.6005 33.0374C98.3443 32.4464 98.0771 31.8613 97.7992 31.2823L97.7987 31.2823C98.0766 31.8612 98.3438 32.4464 98.6 33.0373L98.6005 33.0374ZM94.57 25.5528C94.862 25.9996 95.147 26.4514 95.4249 26.9079L95.4245 26.908C95.1465 26.4515 94.8615 25.9997 94.5696 25.5529L94.57 25.5528ZM101.1 49.8851C99.913 50.1901 98.6686 50.3523 97.3863 50.3523C92.2566 50.3523 87.7331 47.7568 85.0573 43.8075C84.5754 44.0063 84.109 44.2238 83.6603 44.461C86.5917 48.9275 91.6446 51.877 97.3863 51.877C98.6899 51.877 99.9579 51.725 101.174 51.4377C101.157 50.918 101.133 50.4005 101.1 49.8851ZM100.321 43.751C100.418 44.255 100.507 44.7617 100.588 45.271C99.5802 45.6001 98.504 45.778 97.3863 45.778C94.4003 45.778 91.7109 44.5083 89.8285 42.4794C90.4758 42.3699 91.1239 42.2844 91.7663 42.22C93.2893 43.4895 95.2486 44.2532 97.3863 44.2532C98.4154 44.2532 99.4032 44.0762 100.321 43.751ZM99.617 40.6442C82.369 38.8636 76.8005 47.0382 76.3752 50.9411V95.4786C75.8724 95.7622 75.3641 96.0372 74.8504 96.3032V50.8626L74.8543 50.8243C75.3588 45.8464 81.823 37.4835 99.1767 39.0696C99.332 39.5909 99.4788 40.1158 99.617 40.6442ZM98.2241 36.2025C96.108 35.7626 92.7113 35.5371 89.0121 35.9C85.0417 36.2895 80.8121 37.3484 77.4863 39.468C76.3231 40.2094 75.2282 40.586 74.1704 40.5769C73.1025 40.5677 72.1655 40.1662 71.3245 39.5231C70.495 38.8888 69.7398 38.0057 69.01 36.9902C68.2783 35.972 67.5439 34.7796 66.7706 33.5051L66.4901 33.0423C63.4245 27.9817 59.5551 21.5942 52.1677 17.632C40.135 11.1784 29.7059 11.1008 26.7664 11.7286L26.7412 11.6104C27.6782 11.0268 28.6365 10.4742 29.6147 9.95386C34.5451 9.89846 43.2547 11.1214 52.8883 16.2883C60.6497 20.451 64.7088 27.1557 67.7576 32.1915L67.7653 32.2044C67.8694 32.3763 67.9724 32.5463 68.0742 32.7142C68.8503 33.9933 69.556 35.1371 70.2482 36.1005C70.9426 37.0667 71.5952 37.8107 72.2507 38.3119C72.8946 38.8042 73.5195 39.0465 74.1836 39.0522C74.8577 39.058 75.6649 38.8207 76.6668 38.1822C80.2695 35.8861 84.7615 34.7849 88.8632 34.3826C92.1831 34.0569 95.3057 34.1835 97.5772 34.5371C97.8026 35.0873 98.0184 35.6425 98.2241 36.2025ZM96.1782 31.4383C96.4075 31.902 96.6296 32.3699 96.8443 32.8418C96.7862 32.8538 96.7287 32.8676 96.672 32.8832C95.7887 32.8144 94.9399 32.7506 94.2208 32.6976C94.7355 32.1105 95.4109 31.6679 96.1782 31.4383ZM93.9329 27.3931C93.662 26.9554 93.3843 26.5223 93.1001 26.094C90.3583 27.3494 88.2624 29.772 87.4484 32.726C87.9747 32.6618 88.5218 32.6118 89.0911 32.5782C89.9048 30.2446 91.6754 28.3595 93.9329 27.3931ZM90.3527 22.3528C86.1362 24.6184 83.1378 28.8577 82.5936 33.8347C82.0366 34.0256 81.5106 34.2289 81.0119 34.4383C81.3663 28.7308 84.6388 23.8136 89.3554 21.1609C89.6941 21.5528 90.0265 21.9501 90.3527 22.3528ZM38.2519 6.38013C44.039 6.46736 49.0614 9.70923 51.6756 14.4624C52.4228 14.8626 53.1822 15.2882 53.9541 15.7409C51.958 10.6292 47.5743 6.71299 42.174 5.3633C40.8457 5.64891 39.5376 5.98866 38.2519 6.38013ZM50.6052 4.30908C55.4811 7.79369 58.8527 13.2482 59.5573 19.5099C60.1301 19.98 60.6763 20.4629 61.1977 20.9551C60.9128 14.278 57.8066 8.33159 53.0409 4.27747C52.8499 4.27526 52.6587 4.27416 52.4673 4.27416C51.8438 4.27416 51.223 4.28587 50.6052 4.30908ZM59.8884 4.83563C63.5878 9.55448 65.7934 15.5003 65.7934 21.9613C65.7934 23.2831 65.7011 24.5833 65.5226 25.8558C65.9629 26.4446 66.3794 27.0299 66.7749 27.6063C66.92 26.8627 67.037 26.1091 67.1247 25.3465C69.5536 27.4158 72.4278 28.9779 75.5836 29.869C75.1248 31.6598 74.8809 33.5368 74.8809 35.4706C74.8809 36.0534 74.9031 36.6309 74.9465 37.2024C75.1687 37.1587 75.4107 37.0872 75.6847 36.9853C75.9359 36.8917 76.1829 36.7861 76.4392 36.6669C76.4169 36.271 76.4057 35.8721 76.4057 35.4706C76.4057 28.0274 80.2816 21.4895 86.1253 17.7651C85.6623 17.3227 85.1905 16.8894 84.7104 16.4654C83.7747 16.8053 82.7649 16.9906 81.7118 16.9906C77.0513 16.9906 73.2387 13.3605 72.9471 8.77363C72.4378 8.53742 71.9238 8.30975 71.4051 8.0908C71.4049 8.11201 71.4047 8.13325 71.4046 8.1545C71.4045 8.17233 71.4045 8.19018 71.4045 8.20803C71.4045 13.9006 76.0192 18.5154 81.7118 18.5154C82.0224 18.5154 82.3298 18.5016 82.6335 18.4747C81.1725 19.7439 79.8768 21.1984 78.783 22.8015C71.9667 21.4411 66.8302 15.4244 66.8302 8.20803C66.8302 7.61558 66.8648 7.03122 66.9322 6.45685C66.4413 6.30448 65.9471 6.15967 65.4498 6.02254C65.3546 6.73751 65.3055 7.46703 65.3055 8.20803C65.3055 15.963 70.686 22.4613 77.9175 24.1734C77.1441 25.5036 76.503 26.9202 76.0123 28.4052C72.6963 27.4714 69.7132 25.7428 67.2816 23.4382C67.3058 22.9489 67.3181 22.4566 67.3181 21.9613C67.3181 15.7369 65.3776 9.96573 62.0685 5.21976C61.3474 5.07568 60.6206 4.94751 59.8884 4.83563ZM10.8218 27.686C10.4381 28.3157 10.0683 28.9548 9.71282 29.6029C10.1093 31.0749 10.6176 32.5011 11.228 33.8717C9.49179 34.5822 7.89834 35.5697 6.5027 36.7795C6.12407 37.8521 5.78192 38.9419 5.47774 40.0474C7.1476 37.938 9.35182 36.271 11.886 35.2507C12.5965 36.6449 13.4154 37.9746 14.3315 39.2289C9.90057 40.6526 6.69388 44.8078 6.69388 49.7119C6.69388 55.7918 11.6227 60.7206 17.7026 60.7206C23.7664 60.7206 28.6851 55.818 28.7112 49.7603C30.1737 50.2494 31.6875 50.6263 33.2424 50.8809C32.6446 58.9411 25.9156 65.2949 17.7026 65.2949C11.7041 65.2949 6.49713 61.9055 3.89246 56.9374C3.98346 58.0772 4.11369 59.2059 4.28178 60.3222C7.41521 64.2803 12.2624 66.8196 17.7026 66.8196C26.6876 66.8196 34.0549 59.893 34.7558 51.0882C35.825 51.2064 36.9116 51.2671 38.0123 51.2671C38.4545 51.2671 38.8944 51.2573 39.3317 51.2379C38.5486 62.5005 29.1642 71.3939 17.7026 71.3939C13.4331 71.3939 9.4518 70.1598 6.09596 68.0289C6.33735 68.7745 6.59621 69.5122 6.87207 70.2416C10.1053 71.9508 13.7909 72.9186 17.7026 72.9186C30.0432 72.9186 40.134 63.2863 40.8668 51.1299C42.4435 50.9775 43.9837 50.7001 45.4774 50.3078C45.1603 65.3757 32.8465 77.4929 17.7026 77.4929C14.9059 77.4929 12.2057 77.0796 9.65982 76.3109C10.0053 76.9441 10.3645 77.5689 10.7369 78.1848C12.9695 78.7291 15.3024 79.0176 17.7026 79.0176C33.8381 79.0176 46.9279 65.9773 47.008 49.8606C52.1821 48.1936 56.7281 45.1272 60.2 41.1073C60.0435 40.5528 59.8608 39.9777 59.6504 39.3864C54.5579 45.7021 46.757 49.7424 38.0123 49.7424C24.6317 49.7424 13.4605 40.2826 10.8218 27.686ZM63.8722 100.395C63.422 100.503 62.9693 100.604 62.5143 100.7H62.3474V43.4776C61.9473 34.7717 51.7337 14.4634 21.9222 15.0331C22.577 14.5057 23.2457 13.9949 23.9277 13.5013C53.0691 13.8586 63.4579 34.1538 63.8714 43.4264L63.8722 43.4434V100.395ZM16.3979 20.2371C16.3531 20.8059 16.3303 21.381 16.3303 21.9613C16.3303 33.936 26.0377 43.6433 38.0123 43.6433C45.896 43.6433 52.797 39.4357 56.5921 33.1437C56.9031 33.6354 57.1953 34.1263 57.4695 34.6144C53.3293 40.9679 46.1613 45.1681 38.0123 45.1681C25.2346 45.1681 14.8688 34.8412 14.8059 22.0783C15.3214 21.4513 15.8522 20.8373 16.3979 20.2371ZM38.0123 39.0691C44.9173 39.0691 50.8667 34.9784 53.5695 29.0882C53.2088 28.6742 52.8328 28.2636 52.4413 27.8574C50.1166 33.5404 44.532 37.5443 38.0123 37.5443C29.4061 37.5443 22.4293 30.5676 22.4293 21.9613C22.4293 20.0955 22.7573 18.3063 23.3586 16.6481C22.8279 16.6415 22.2902 16.6418 21.7453 16.6493C21.1996 18.3214 20.9046 20.1069 20.9046 21.9613C20.9046 31.4097 28.564 39.0691 38.0123 39.0691ZM38.0123 32.9701C43.2062 32.9701 47.56 29.3732 48.7187 24.5345C48.2815 24.1993 47.8301 23.8702 47.3642 23.5482C46.6091 28.0306 42.7095 31.4453 38.0123 31.4453C32.7745 31.4453 28.5284 27.1992 28.5284 21.9613C28.5284 20.186 29.0161 18.5247 29.865 17.104C29.3273 17.033 28.781 16.9697 28.226 16.9146C27.4448 18.4263 27.0036 20.1423 27.0036 21.9613C27.0036 28.0413 31.9324 32.9701 38.0123 32.9701ZM33.1026 21.9613C33.1026 20.3794 33.8508 18.9722 35.0125 18.0743C35.7573 18.2597 36.4821 18.4612 37.1877 18.6775C35.7168 19.0457 34.6274 20.3763 34.6274 21.9613C34.6274 23.8308 36.1429 25.3463 38.0123 25.3463C39.8818 25.3463 41.3973 23.8308 41.3973 21.9613C41.3973 21.2089 41.1518 20.5139 40.7366 19.9519C41.4484 20.2472 42.1372 20.5584 42.8034 20.8838C42.8811 21.2305 42.9221 21.5911 42.9221 21.9613C42.9221 24.6729 40.7239 26.871 38.0123 26.871C35.3008 26.871 33.1026 24.6729 33.1026 21.9613ZM8.21864 49.7119C8.21864 45.2913 11.243 41.5772 15.3354 40.5257C18.4583 44.3359 22.5225 47.3448 27.1729 49.1972C27.182 49.3676 27.1866 49.5392 27.1866 49.7119C27.1866 54.9497 22.9405 59.1958 17.7026 59.1958C12.4648 59.1958 8.21864 54.9497 8.21864 49.7119ZM14.3177 49.7119C14.3177 47.8424 15.8332 46.3269 17.7026 46.3269C19.5721 46.3269 21.0876 47.8424 21.0876 49.7119C21.0876 51.5813 19.5721 53.0968 17.7026 53.0968C15.8332 53.0968 14.3177 51.5813 14.3177 49.7119ZM17.7026 44.8021C14.9911 44.8021 12.7929 47.0003 12.7929 49.7119C12.7929 52.4234 14.9911 54.6216 17.7026 54.6216C20.4142 54.6216 22.6123 52.4234 22.6123 49.7119C22.6123 47.0003 20.4142 44.8021 17.7026 44.8021Z" fill="#C4F0C6"/>
</svg>
